<?xml version="1.0" encoding="UTF-8" standalone="no"?>
<!-- Created with Inkscape (http://www.inkscape.org/) -->

<svg
   xmlns:dc="http://purl.org/dc/elements/1.1/"
   xmlns:cc="http://creativecommons.org/ns#"
   xmlns:rdf="http://www.w3.org/1999/02/22-rdf-syntax-ns#"
   xmlns:svg="http://www.w3.org/2000/svg"
   xmlns="http://www.w3.org/2000/svg"
   xmlns:sodipodi="http://sodipodi.sourceforge.net/DTD/sodipodi-0.dtd"
   xmlns:inkscape="http://www.inkscape.org/namespaces/inkscape"
   width="128"
   height="128"
   viewBox="0 0 128 128"
   id="svg4139"
   version="1.1"
   inkscape:version="0.91 r13725"
   sodipodi:docname="noon.svg">
  <defs
     id="defs4141" />
  <sodipodi:namedview
     id="base"
     pagecolor="#ffffff"
     bordercolor="#666666"
     borderopacity="1.0"
     inkscape:pageopacity="0.0"
     inkscape:pageshadow="2"
     inkscape:zoom="1.1396982"
     inkscape:cx="-291.68768"
     inkscape:cy="-17.095351"
     inkscape:document-units="px"
     inkscape:current-layer="g4744"
     showgrid="false"
     units="px"
     inkscape:window-width="1920"
     inkscape:window-height="1017"
     inkscape:window-x="-8"
     inkscape:window-y="-8"
     inkscape:window-maximized="1" />
  <metadata
     id="metadata4144">
    <rdf:RDF>
      <cc:Work
         rdf:about="">
        <dc:format>image/svg+xml</dc:format>
        <dc:type
           rdf:resource="http://purl.org/dc/dcmitype/StillImage" />
        <dc:title></dc:title>
      </cc:Work>
    </rdf:RDF>
  </metadata>
  <g
     inkscape:label="Layer 1"
     inkscape:groupmode="layer"
     id="layer1"
     transform="translate(0,-924.36216)">
    <g
       id="g4744">
      <path
         style="fill:#000000;fill-opacity:1;stroke:#00838f;stroke-width:0.14937364;stroke-miterlimit:4;stroke-dasharray:none;stroke-opacity:1"
         d="m 74.767179,934.97515 c -0.431336,0.029 -1.042079,0.8093 -1.46222,1.91467 l -3.721472,9.79058 a 18.013519,18.013519 0 0 0 -4.72525,-0.85695 l -0.003,-5.19718 c -7.26e-4,-1.10636 -0.389882,-2.01668 -0.871939,-2.04052 -0.482056,-0.0238 -0.869669,0.84726 -0.868943,1.95363 l 0.003,5.27208 a 18.013519,18.013519 0 0 0 -5.703561,1.22102 l -4.205382,-9.36211 c -0.553749,-1.2328 -1.368309,-2.10967 -1.826278,-1.96561 -0.457969,0.14406 -0.379961,1.25267 0.173789,2.48547 l 4.286284,9.54339 a 18.013519,18.013519 0 0 0 -3.9447,2.74466 l -3.675028,-3.67053 c -0.782832,-0.78181 -1.702277,-1.15101 -2.059994,-0.82699 -0.357717,0.32401 -0.01427,1.21376 0.768565,1.99557 l 3.737952,3.73345 a 18.013519,18.013519 0 0 0 -3.173139,4.89005 l -9.598821,-3.64806 c -1.263281,-0.48016 -2.45977,-0.52308 -2.681737,-0.0974 -0.221966,0.4257 0.616931,1.15435 1.880212,1.63451 l 9.790588,3.72147 a 18.013519,18.013519 0 0 0 -0.856957,4.72525 l -5.197177,0.003 c -1.106365,7.3e-4 -2.016685,0.38988 -2.040517,0.87194 -0.02383,0.48206 0.847258,0.86967 1.953623,0.86894 l 5.272085,-0.003 a 18.013519,18.013519 0 0 0 1.221015,5.70356 l -9.362109,4.20538 c -1.232801,0.55375 -2.109669,1.36834 -1.965609,1.82637 0.144062,0.4579 1.252675,0.3799 2.485476,-0.17383 l 9.543388,-4.28634 a 18.013519,18.013519 0 0 0 2.74466,3.94474 l -3.670533,3.67512 c -0.781804,0.78293 -1.151008,1.70236 -0.826994,2.06009 0.324014,0.3577 1.213767,0.014 1.995572,-0.76853 l 3.733457,-3.73815 a 18.013519,18.013519 0 0 0 4.89005,3.17472 l -3.648061,9.59773 c -0.480162,1.26323 -0.523081,2.45979 -0.09738,2.68179 0.4257,0.222 1.15435,-0.61693 1.634512,-1.88026 l 3.721471,-9.79093 a 18.013519,18.013519 0 0 0 4.72525,0.85703 l 0.003,5.19728 c 7.27e-4,1.10643 0.389883,2.01676 0.871939,2.04056 0.482057,0.024 0.869669,-0.84723 0.868943,-1.95366 l -0.003,-5.27228 a 18.013519,18.013519 0 0 0 5.705058,-1.21956 l 4.203884,9.36093 c 0.553749,1.23283 1.368309,2.10976 1.826279,1.96566 0.457968,-0.144 0.37996,-1.25263 -0.173789,-2.48549 l -4.286284,-9.5437 a 18.013519,18.013519 0 0 0 3.9447,-2.74482 l 3.675027,3.67075 c 0.782833,0.7818 1.702277,1.15103 2.059994,0.82693 0.357718,-0.32403 0.01427,-1.21376 -0.768565,-1.99559 l -3.737952,-3.73362 a 18.013519,18.013519 0 0 0 3.17314,-4.89006 l 9.59882,3.64806 c 1.263281,0.48016 2.458275,0.52458 2.680241,0.0989 0.221966,-0.4257 -0.615433,-1.15585 -1.878716,-1.63601 l -9.790587,-3.72147 a 18.013519,18.013519 0 0 0 0.856957,-4.72525 l 5.197176,-0.003 c 1.106365,-7.3e-4 2.016685,-0.38988 2.040517,-0.87194 0.02383,-0.48206 -0.847258,-0.86967 -1.953623,-0.86894 l -5.272085,0.003 a 18.013519,18.013519 0 0 0 -1.221014,-5.70356 l 9.362109,-4.20538 c 1.2328,-0.55375 2.10967,-1.36831 1.965607,-1.82628 -0.144063,-0.45797 -1.252674,-0.37996 -2.485475,0.17379 l -9.543388,4.28629 a 18.013519,18.013519 0 0 0 -2.74466,-3.9447 l 3.670533,-3.67503 c 0.781805,-0.78283 1.151008,-1.70228 0.826994,-2.06 -0.324013,-0.35771 -1.213767,-0.0143 -1.995571,0.76857 l -3.733458,3.73795 a 18.013519,18.013519 0 0 0 -4.89005,-3.17314 l 3.648062,-9.59882 c 0.480161,-1.26328 0.524579,-2.45827 0.09888,-2.68024 -0.05321,-0.0277 -0.112169,-0.0401 -0.173789,-0.036 z"
         id="path4687"
         inkscape:connector-curvature="0" />
    </g>
  </g>
</svg>
