<?xml version="1.0" encoding="UTF-8" standalone="no"?>
<!-- Created with Inkscape (http://www.inkscape.org/) -->

<svg
   xmlns:dc="http://purl.org/dc/elements/1.1/"
   xmlns:cc="http://creativecommons.org/ns#"
   xmlns:rdf="http://www.w3.org/1999/02/22-rdf-syntax-ns#"
   xmlns:svg="http://www.w3.org/2000/svg"
   xmlns="http://www.w3.org/2000/svg"
   xmlns:sodipodi="http://sodipodi.sourceforge.net/DTD/sodipodi-0.dtd"
   xmlns:inkscape="http://www.inkscape.org/namespaces/inkscape"
   width="128"
   height="128"
   viewBox="0 0 128 128"
   id="svg4139"
   version="1.1"
   inkscape:version="0.91 r13725"
   sodipodi:docname="noon.svg">
  <defs
     id="defs4141" />
  <sodipodi:namedview
     id="base"
     pagecolor="#ffffff"
     bordercolor="#666666"
     borderopacity="1.0"
     inkscape:pageopacity="0.0"
     inkscape:pageshadow="2"
     inkscape:zoom="1.1396982"
     inkscape:cx="-193.16975"
     inkscape:cy="-17.095351"
     inkscape:document-units="px"
     inkscape:current-layer="g4744"
     showgrid="false"
     units="px"
     inkscape:window-width="1920"
     inkscape:window-height="1017"
     inkscape:window-x="-8"
     inkscape:window-y="-8"
     inkscape:window-maximized="1" />
  <metadata
     id="metadata4144">
    <rdf:RDF>
      <cc:Work
         rdf:about="">
        <dc:format>image/svg+xml</dc:format>
        <dc:type
           rdf:resource="http://purl.org/dc/dcmitype/StillImage" />
        <dc:title />
      </cc:Work>
    </rdf:RDF>
  </metadata>
  <g
     inkscape:label="Layer 1"
     inkscape:groupmode="layer"
     id="layer1"
     transform="translate(0,-924.36216)">
    <g
       id="g4744">
      <path
         style="fill:#000000;fill-opacity:1;stroke:#00838f;stroke-width:0.14937364;stroke-miterlimit:4;stroke-dasharray:none;stroke-opacity:1"
         d="m 268.67816,968.31731 c -0.43133,0.029 -1.04208,0.8093 -1.46222,1.91467 l -3.72147,9.79058 a 18.013519,18.013519 0 0 0 -4.72525,-0.85695 l -0.003,-5.19718 c -7.2e-4,-1.10636 -0.38988,-2.01668 -0.87194,-2.04052 -0.48205,-0.0238 -0.86967,0.84726 -0.86894,1.95363 l 0.003,5.27208 a 18.013519,18.013519 0 0 0 -5.70356,1.22102 l -4.20538,-9.36211 c -0.55375,-1.2328 -1.36831,-2.10967 -1.82628,-1.96561 -0.45797,0.14406 -0.37996,1.25267 0.17379,2.48547 l 4.28628,9.54339 a 18.013519,18.013519 0 0 0 -3.9447,2.74466 l -3.67503,-3.67053 c -0.78283,-0.78181 -1.70227,-1.15101 -2.05999,-0.82699 -0.35772,0.32401 -0.0143,1.21376 0.76856,1.99557 l 3.73796,3.73345 a 18.013519,18.013519 0 0 0 -3.17314,4.89005 l -9.59882,-3.64806 c -1.26328,-0.48016 -2.45977,-0.52308 -2.68174,-0.0974 -0.22197,0.4257 0.61693,1.15435 1.88021,1.63451 l 9.79059,3.72147 a 18.013519,18.013519 0 0 0 -0.85696,4.72525 l -5.19717,0.003 c -1.10637,7.3e-4 -2.01669,0.38988 -2.04052,0.87194 -0.0238,0.48206 0.84726,0.86967 1.95362,0.86894 l 5.27209,-0.003 a 18.013519,18.013519 0 0 0 1.22101,5.70356 l -9.36211,4.2054 c -1.2328,0.5537 -2.10967,1.3683 -1.96561,1.8264 0.14407,0.4579 1.25268,0.3799 2.48548,-0.1739 l 9.54339,-4.2863 a 18.013519,18.013519 0 0 0 2.74466,3.9447 l -3.67054,3.6751 c -0.7818,0.783 -1.151,1.7024 -0.82699,2.0601 0.32401,0.3577 1.21377,0.014 1.99557,-0.7685 l 3.73346,-3.7381 a 18.013519,18.013519 0 0 0 4.89005,3.1747 l -3.64806,9.5977 c -0.48016,1.2632 -0.52308,2.4598 -0.0974,2.6818 0.4257,0.222 1.15435,-0.6169 1.63451,-1.8803 l 3.72147,-9.7909 a 18.013519,18.013519 0 0 0 4.72525,0.857 l 0.003,5.1973 c 7.3e-4,1.1064 0.38988,2.0168 0.87194,2.0406 0.48206,0.024 0.86967,-0.8473 0.86894,-1.9537 l -0.003,-5.2723 a 18.013519,18.013519 0 0 0 5.70506,-1.2195 l 4.20389,9.3609 c 0.55374,1.2328 1.3683,2.1098 1.82627,1.9657 0.45797,-0.144 0.37996,-1.2527 -0.17378,-2.4855 l -4.28629,-9.5437 a 18.013519,18.013519 0 0 0 3.9447,-2.7448 l 3.67503,3.6707 c 0.78283,0.7818 1.70228,1.151 2.05999,0.8269 0.35772,-0.324 0.0143,-1.2137 -0.76856,-1.9956 l -3.73795,-3.7336 a 18.013519,18.013519 0 0 0 3.17314,-4.89 l 9.59882,3.648 c 1.26328,0.4802 2.45827,0.5246 2.68024,0.099 0.22196,-0.4257 -0.61544,-1.1558 -1.87872,-1.636 l -9.79059,-3.7215 a 18.013519,18.013519 0 0 0 0.85696,-4.72521 l 5.19718,-0.003 c 1.10636,-7.3e-4 2.01668,-0.38988 2.04051,-0.87194 0.0238,-0.48206 -0.84725,-0.86967 -1.95362,-0.86894 l -5.27208,0.003 a 18.013519,18.013519 0 0 0 -1.22102,-5.70356 l 9.36211,-4.20538 c 1.2328,-0.55375 2.10967,-1.36831 1.96561,-1.82628 -0.14407,-0.45797 -1.25268,-0.37996 -2.48548,0.17379 l -9.54339,4.28629 a 18.013519,18.013519 0 0 0 -2.74466,-3.9447 l 3.67054,-3.67503 c 0.7818,-0.78283 1.15101,-1.70228 0.82699,-2.06 -0.32401,-0.35771 -1.21377,-0.0143 -1.99557,0.76857 l -3.73346,3.73795 a 18.013519,18.013519 0 0 0 -4.89005,-3.17314 l 3.64806,-9.59882 c 0.48017,-1.26328 0.52458,-2.45827 0.0989,-2.68024 -0.0532,-0.0277 -0.11216,-0.0401 -0.17378,-0.036 z"
         id="path4687"
         inkscape:connector-curvature="0" />
      <path
         sodipodi:type="star"
         style="fill:#000000;fill-opacity:1;stroke:#ffffff;stroke-width:0.5043515;stroke-miterlimit:4;stroke-dasharray:none;stroke-opacity:1"
         id="path4135"
         sodipodi:sides="15"
         sodipodi:cx="19.973072"
         sodipodi:cy="1032.8955"
         sodipodi:r1="20.598314"
         sodipodi:r2="10.299158"
         sodipodi:arg1="0.8347408"
         sodipodi:arg2="1.0441803"
         inkscape:flatsided="false"
         inkscape:rounded="0"
         inkscape:randomized="0"
         d="m 33.802158,1048.1614 -8.652619,-6.3621 1.247841,10.6671 -5.316853,-9.3314 -3.198746,10.2524 -1.061755,-10.6873 -7.0922407,8.0651 3.3769297,-10.1952 -9.7594226,4.4831 7.2317126,-7.9402 -10.73911123,0.126 9.83606703,-4.3123 -9.86191044,-4.2529 10.73967564,0.061 -7.2794952,-7.8964 9.7862972,4.4241 -3.4383897,-10.1746 7.1407787,8.0221 0.997245,-10.6935 3.260555,10.233 5.260447,-9.3634 -1.183448,10.6745 8.614069,-6.4142 -5.422822,9.2702 10.478241,-2.356 -8.724542,6.2631 10.530631,2.1096 -10.517709,2.173 8.762178,6.2104 -10.492268,-2.2928 z"
         inkscape:transform-center-x="-0.38373373"
         inkscape:transform-center-y="0.011343512"
         transform="matrix(1.7554217,0,0,1.7693346,28.597965,-865.87235)" />
      <ellipse
         style="fill:#000000;fill-opacity:1;stroke:#ffffff;stroke-width:0.88885117;stroke-miterlimit:4;stroke-dasharray:none;stroke-opacity:1"
         id="path4137"
         cx="64"
         cy="960.95062"
         rx="19.783264"
         ry="19.463408" />
    </g>
  </g>
</svg>
