<?xml version="1.0" encoding="UTF-8" standalone="no"?>
<!-- Created with Inkscape (http://www.inkscape.org/) -->

<svg
   xmlns:dc="http://purl.org/dc/elements/1.1/"
   xmlns:cc="http://creativecommons.org/ns#"
   xmlns:rdf="http://www.w3.org/1999/02/22-rdf-syntax-ns#"
   xmlns:svg="http://www.w3.org/2000/svg"
   xmlns="http://www.w3.org/2000/svg"
   xmlns:sodipodi="http://sodipodi.sourceforge.net/DTD/sodipodi-0.dtd"
   xmlns:inkscape="http://www.inkscape.org/namespaces/inkscape"
   width="24"
   height="24"
   viewBox="0 0 24 24"
   id="svg4139"
   version="1.1"
   inkscape:version="0.91 r13725"
   sodipodi:docname="noon_small.svg">
  <defs
     id="defs4141" />
  <sodipodi:namedview
     id="base"
     pagecolor="#ffffff"
     bordercolor="#666666"
     borderopacity="1.0"
     inkscape:pageopacity="0.0"
     inkscape:pageshadow="2"
     inkscape:zoom="4.5587928"
     inkscape:cx="-52.191306"
     inkscape:cy="1.6320858"
     inkscape:document-units="px"
     inkscape:current-layer="g4744"
     showgrid="false"
     units="px"
     inkscape:window-width="1920"
     inkscape:window-height="1017"
     inkscape:window-x="-8"
     inkscape:window-y="-8"
     inkscape:window-maximized="1" />
  <metadata
     id="metadata4144">
    <rdf:RDF>
      <cc:Work
         rdf:about="">
        <dc:format>image/svg+xml</dc:format>
        <dc:type
           rdf:resource="http://purl.org/dc/dcmitype/StillImage" />
        <dc:title />
      </cc:Work>
    </rdf:RDF>
  </metadata>
  <g
     inkscape:label="Layer 1"
     inkscape:groupmode="layer"
     id="layer1"
     transform="translate(0,-1028.3622)">
    <g
       id="g4744">
      <path
         style="fill:#000000;fill-opacity:1;stroke:#00838f;stroke-width:0.06203781;stroke-miterlimit:4;stroke-dasharray:none;stroke-opacity:1"
         d="m 16.472213,1028.393 c -0.179143,0.012 -0.432797,0.3362 -0.607289,0.7952 l -1.545601,4.0663 a 7.4813684,7.4813684 0 0 0 -1.962489,-0.3559 l -0.0012,-2.1585 c -3.02e-4,-0.4595 -0.161926,-0.8376 -0.362134,-0.8475 -0.200207,-0.01 -0.361191,0.3519 -0.360889,0.8114 l 0.0012,2.1896 a 7.4813684,7.4813684 0 0 0 -2.3688015,0.5071 l -1.746577,-3.8883 c -0.229983,-0.512 -0.568286,-0.8762 -0.758489,-0.8163 -0.190204,0.06 -0.157806,0.5202 0.07218,1.0322 l 1.780179,3.9636 a 7.4813684,7.4813684 0 0 0 -1.638312,1.1399 l -1.526311,-1.5244 c -0.325125,-0.3248 -0.706989,-0.4781 -0.855556,-0.3435 -0.148567,0.1346 -0.0059,0.5041 0.3192,0.8288 l 1.552445,1.5506 a 7.4813684,7.4813684 0 0 0 -1.317867,2.0309 l -3.986579,-1.5151 c -0.52466498,-0.1994 -1.02158998,-0.2173 -1.11377798,-0.04 -0.09219,0.1768 0.256223,0.4794 0.780889,0.6788 l 4.06622298,1.5456 a 7.4813684,7.4813684 0 0 0 -0.35591,1.9625 l -2.15849,10e-4 c -0.459495,3e-4 -0.837569,0.1619 -0.847467,0.3622 -0.0099,0.2002 0.351883,0.3611 0.811378,0.3608 l 2.1896,-10e-4 a 7.4813684,7.4813684 0 0 0 0.507112,2.3689 l -3.888268,1.7465 c -0.51200598,0.23 -0.87618698,0.5683 -0.81635598,0.7586 0.05984,0.1901 0.520261,0.1577 1.03226698,-0.072 l 3.963557,-1.7802 a 7.4813684,7.4813684 0 0 0 1.139911,1.6383 l -1.524445,1.5263 c -0.324698,0.3252 -0.478036,0.7071 -0.343467,0.8556 0.13457,0.1486 0.504101,0.01 0.828801,-0.3192 l 1.550577,-1.5525 a 7.4813684,7.4813684 0 0 0 2.030934,1.3185 l -1.515111,3.9862 c -0.19942,0.5246 -0.217246,1.0216 -0.04045,1.1138 0.176802,0.092 0.479425,-0.2563 0.678846,-0.7809 l 1.5456,-4.0664 a 7.4813684,7.4813684 0 0 0 1.9624885,0.3559 l 0.0012,2.1586 c 3.02e-4,0.4595 0.161926,0.8376 0.362134,0.8474 0.200207,0.01 0.36119,-0.3518 0.360889,-0.8113 l -0.0012,-2.1897 a 7.4813684,7.4813684 0 0 0 2.369423,-0.5065 l 1.745955,3.8877 c 0.229983,0.5121 0.568286,0.8763 0.75849,0.8164 0.190203,-0.06 0.157805,-0.5202 -0.07218,-1.0322 l -1.780178,-3.9637 a 7.4813684,7.4813684 0 0 0 1.638311,-1.14 l 1.526311,1.5245 c 0.325126,0.3247 0.706989,0.4781 0.855556,0.3435 0.148567,-0.1346 0.0059,-0.5041 -0.3192,-0.8288 l -1.552445,-1.5507 a 7.4813684,7.4813684 0 0 0 1.317868,-2.0309 l 3.986578,1.5151 c 0.524665,0.1994 1.02097,0.2179 1.113157,0.041 0.09219,-0.1768 -0.255601,-0.4801 -0.780268,-0.6795 l -4.066223,-1.5456 a 7.4813684,7.4813684 0 0 0 0.355911,-1.9625 l 2.158489,-10e-4 c 0.459495,-3e-4 0.837569,-0.1619 0.847467,-0.3621 0.0099,-0.2002 -0.351883,-0.3612 -0.811377,-0.3609 l -2.189601,10e-4 a 7.4813684,7.4813684 0 0 0 -0.507112,-2.3688 l 3.888269,-1.7466 c 0.512005,-0.23 0.876186,-0.5683 0.816355,-0.7585 -0.05984,-0.1902 -0.520261,-0.1578 -1.032267,0.072 l -3.963557,1.7802 a 7.4813684,7.4813684 0 0 0 -1.139911,-1.6383 l 1.524445,-1.5263 c 0.324699,-0.3251 0.478036,-0.707 0.343467,-0.8556 -0.134569,-0.1485 -0.504101,-0.01 -0.8288,0.3192 l -1.550578,1.5525 a 7.4813684,7.4813684 0 0 0 -2.030934,-1.3179 l 1.515112,-3.9866 c 0.199419,-0.5246 0.217867,-1.0209 0.04107,-1.1131 -0.0221,-0.011 -0.04659,-0.017 -0.07218,-0.015 z"
         id="path4687"
         inkscape:connector-curvature="0" />
    </g>
  </g>
</svg>
