<?xml version="1.0" encoding="UTF-8" standalone="no"?>
<!-- Generator: Adobe Illustrator 15.0.2, SVG Export Plug-In . SVG Version: 6.00 Build 0)  -->

<svg
   xmlns:dc="http://purl.org/dc/elements/1.1/"
   xmlns:cc="http://creativecommons.org/ns#"
   xmlns:rdf="http://www.w3.org/1999/02/22-rdf-syntax-ns#"
   xmlns:svg="http://www.w3.org/2000/svg"
   xmlns="http://www.w3.org/2000/svg"
   xmlns:xlink="http://www.w3.org/1999/xlink"
   xmlns:sodipodi="http://sodipodi.sourceforge.net/DTD/sodipodi-0.dtd"
   xmlns:inkscape="http://www.inkscape.org/namespaces/inkscape"
   version="1.0"
   id="Layer_1"
   x="0px"
   y="0px"
   width="22"
   height="36"
   viewBox="0 0 22 36"
   enable-background="new 0 0 2481 2073"
   xml:space="preserve"
   inkscape:version="0.91 r13725"
   sodipodi:docname="pin-white.svg"><metadata
     id="metadata15"><rdf:RDF><cc:Work
         rdf:about=""><dc:format>image/svg+xml</dc:format><dc:type
           rdf:resource="http://purl.org/dc/dcmitype/StillImage" /><dc:title /></cc:Work></rdf:RDF></metadata><defs
     id="defs13"><linearGradient
       inkscape:collect="always"
       id="linearGradient4136"><stop
         style="stop-color:#16ead6;stop-opacity:1"
         offset="0"
         id="stop4138" /><stop
         style="stop-color:#ffffff;stop-opacity:1"
         offset="1"
         id="stop4140" /></linearGradient><linearGradient
       inkscape:collect="always"
       xlink:href="#linearGradient4136"
       id="linearGradient4142"
       x1="4.5307117"
       y1="18.56461"
       x2="16.830282"
       y2="18.56461"
       gradientUnits="userSpaceOnUse"
       gradientTransform="matrix(0.82706191,0,0,0.82706191,-0.05879253,4.86783)" /></defs><sodipodi:namedview
     pagecolor="#ffffff"
     bordercolor="#666666"
     borderopacity="1"
     objecttolerance="10"
     gridtolerance="10"
     guidetolerance="10"
     inkscape:pageopacity="0"
     inkscape:pageshadow="2"
     inkscape:window-width="1920"
     inkscape:window-height="1017"
     id="namedview11"
     showgrid="false"
     inkscape:zoom="5.1520216"
     inkscape:cx="-97.197121"
     inkscape:cy="12.475316"
     inkscape:window-x="-8"
     inkscape:window-y="-8"
     inkscape:window-maximized="1"
     inkscape:current-layer="g4143"
     showguides="false" /><g
     id="g3"
     transform="translate(0,-2037)"><g
       id="g4143"
       transform="matrix(2.0987927,0,0,2.0987927,-7.4161494,2012.5584)"><path
         style="clip-rule:evenodd;fill:url(#linearGradient4142);fill-opacity:1;fill-rule:evenodd;stroke:#000000;stroke-width:0.34735259;stroke-miterlimit:10"
         inkscape:connector-curvature="0"
         id="path5"
         d="M 8.7877131,27.812908 C 8.4237811,26.02638 7.7821177,24.539673 7.004921,23.161763 6.4284376,22.139683 5.7606096,21.196283 5.1426979,20.205154 4.9364267,19.874287 4.7584131,19.524747 4.5602062,19.181365 4.1638862,18.494762 3.842557,17.698686 3.8629757,16.666045 c 0.019949,-1.008947 0.3117536,-1.818288 0.7325384,-2.480022 0.6920674,-1.088388 1.8513052,-1.980746 3.4067216,-2.215256 1.2717432,-0.191739 2.4640913,0.1322 3.3096413,0.626624 0.69095,0.404037 1.226024,0.943738 1.632745,1.579797 0.424521,0.663875 0.716851,1.448179 0.741373,2.471198 0.01255,0.524127 -0.07327,1.0095 -0.19418,1.41211 -0.122362,0.40752 -0.319151,0.748169 -0.494236,1.112035 -0.341776,0.71028 -0.770268,1.361078 -1.200291,2.012261 -1.280857,1.939598 -2.4830641,3.917667 -3.0095749,6.628116 z"
         stroke-miterlimit="10" /></g></g></svg>