<?xml version="1.0" encoding="UTF-8" standalone="no"?>
<!-- Generator: Adobe Illustrator 15.0.2, SVG Export Plug-In . SVG Version: 6.00 Build 0)  -->

<svg
   xmlns:dc="http://purl.org/dc/elements/1.1/"
   xmlns:cc="http://creativecommons.org/ns#"
   xmlns:rdf="http://www.w3.org/1999/02/22-rdf-syntax-ns#"
   xmlns:svg="http://www.w3.org/2000/svg"
   xmlns="http://www.w3.org/2000/svg"
   xmlns:xlink="http://www.w3.org/1999/xlink"
   xmlns:sodipodi="http://sodipodi.sourceforge.net/DTD/sodipodi-0.dtd"
   xmlns:inkscape="http://www.inkscape.org/namespaces/inkscape"
   version="1.0"
   id="Layer_1"
   x="0px"
   y="0px"
   width="30"
   height="43"
   viewBox="0 0 30 43"
   enable-background="new 0 0 2481 2073"
   xml:space="preserve"
   inkscape:version="0.91 r13725"
   sodipodi:docname="pin.svg"><metadata
     id="metadata15"><rdf:RDF><cc:Work
         rdf:about=""><dc:format>image/svg+xml</dc:format><dc:type
           rdf:resource="http://purl.org/dc/dcmitype/StillImage" /><dc:title></dc:title></cc:Work></rdf:RDF></metadata><defs
     id="defs13"><linearGradient
       inkscape:collect="always"
       id="linearGradient4136"><stop
         style="stop-color:#1dc8cd;stop-opacity:1"
         offset="0"
         id="stop4138" /><stop
         style="stop-color:#55fabe;stop-opacity:1"
         offset="1"
         id="stop4140" /></linearGradient><linearGradient
       inkscape:collect="always"
       xlink:href="#linearGradient4136"
       id="linearGradient4142"
       x1="4.5307116"
       y1="18.564609"
       x2="16.830283"
       y2="18.564609"
       gradientUnits="userSpaceOnUse" /></defs><sodipodi:namedview
     pagecolor="#ffffff"
     bordercolor="#666666"
     borderopacity="1"
     objecttolerance="10"
     gridtolerance="10"
     guidetolerance="10"
     inkscape:pageopacity="0"
     inkscape:pageshadow="2"
     inkscape:window-width="1920"
     inkscape:window-height="976"
     id="namedview11"
     showgrid="false"
     inkscape:zoom="5.1520216"
     inkscape:cx="-0.73013486"
     inkscape:cy="51.295029"
     inkscape:window-x="-8"
     inkscape:window-y="-8"
     inkscape:window-maximized="1"
     inkscape:current-layer="g4143" /><g
     id="g3"
     transform="translate(0,-2030)"><g
       id="g4143"
       transform="matrix(2.0987927,0,0,2.0987927,-7.4161494,2012.5584)"><path
         style="clip-rule:evenodd;fill:url(#linearGradient4142);fill-rule:evenodd;stroke:#000000;stroke-width:0.41998377;stroke-miterlimit:10;fill-opacity:1"
         inkscape:connector-curvature="0"
         id="path5"
         d="M 10.696304,27.742879 C 10.256274,25.582789 9.4804392,23.785213 8.5407312,22.119183 7.8437055,20.883386 7.0362352,19.742722 6.2891185,18.544349 6.0397162,18.144297 5.82448,17.721669 5.5848282,17.306486 5.105638,16.476315 4.717119,15.51378 4.7418073,14.265214 4.7659279,13.045297 5.1187484,12.066724 5.627519,11.266621 6.4642972,9.9506517 7.8659308,8.8717017 9.7465838,8.5881567 c 1.5376632,-0.2318315 2.9793312,0.159843 4.0016852,0.75765 0.835427,0.488521 1.482384,1.1410743 1.974151,1.9101323 0.513288,0.802691 0.866744,1.750992 0.896393,2.987924 0.01518,0.633721 -0.08859,1.220586 -0.234783,1.707381 -0.147947,0.492732 -0.385885,0.904611 -0.59758,1.344561 -0.413241,0.858799 -0.931331,1.645678 -1.451271,2.433023 -1.548684,2.345167 -3.002271,4.736849 -3.638875,8.014051 z"
         stroke-miterlimit="10" /></g></g></svg>