<?xml version="1.0" encoding="UTF-8" standalone="no"?>
<!-- Created with Inkscape (http://www.inkscape.org/) -->

<svg
   xmlns:dc="http://purl.org/dc/elements/1.1/"
   xmlns:cc="http://creativecommons.org/ns#"
   xmlns:rdf="http://www.w3.org/1999/02/22-rdf-syntax-ns#"
   xmlns:svg="http://www.w3.org/2000/svg"
   xmlns="http://www.w3.org/2000/svg"
   xmlns:sodipodi="http://sodipodi.sourceforge.net/DTD/sodipodi-0.dtd"
   xmlns:inkscape="http://www.inkscape.org/namespaces/inkscape"
   width="24"
   height="24"
   viewBox="0 0 24 24"
   id="svg4139"
   version="1.1"
   inkscape:version="0.91 r13725"
   sodipodi:docname="sun_today.svg">
  <defs
     id="defs4141">
    <marker
       inkscape:stockid="TriangleOutM"
       orient="auto"
       refY="0.0"
       refX="0.0"
       id="TriangleOutM"
       style="overflow:visible"
       inkscape:isstock="true">
      <path
         id="path4454"
         d="M 5.77,0.0 L -2.88,5.0 L -2.88,-5.0 L 5.77,0.0 z "
         style="fill-rule:evenodd;stroke:#ffffff;stroke-width:1pt;stroke-opacity:1;fill:#ffffff;fill-opacity:1"
         transform="scale(0.4)" />
    </marker>
    <marker
       inkscape:stockid="Arrow2Mend"
       orient="auto"
       refY="0.0"
       refX="0.0"
       id="Arrow2Mend"
       style="overflow:visible;"
       inkscape:isstock="true">
      <path
         id="path4192"
         style="fill-rule:evenodd;stroke-width:0.625;stroke-linejoin:round;stroke:#ffffff;stroke-opacity:1;fill:#ffffff;fill-opacity:1"
         d="M 8.7185878,4.0337352 L -2.2072895,0.016013256 L 8.7185884,-4.0017078 C 6.9730900,-1.6296469 6.9831476,1.6157441 8.7185878,4.0337352 z "
         transform="scale(0.6) rotate(180) translate(0,0)" />
    </marker>
    <marker
       inkscape:stockid="TriangleOutL"
       orient="auto"
       refY="0.0"
       refX="0.0"
       id="TriangleOutL"
       style="overflow:visible"
       inkscape:isstock="true">
      <path
         id="path4310"
         d="M 5.77,0.0 L -2.88,5.0 L -2.88,-5.0 L 5.77,0.0 z "
         style="fill-rule:evenodd;stroke:#000000;stroke-width:1pt;stroke-opacity:1;fill:#000000;fill-opacity:1"
         transform="scale(0.8)" />
    </marker>
    <marker
       inkscape:stockid="TriangleInL"
       orient="auto"
       refY="0.0"
       refX="0.0"
       id="TriangleInL"
       style="overflow:visible"
       inkscape:isstock="true">
      <path
         id="path4301"
         d="M 5.77,0.0 L -2.88,5.0 L -2.88,-5.0 L 5.77,0.0 z "
         style="fill-rule:evenodd;stroke:#000000;stroke-width:1pt;stroke-opacity:1;fill:#000000;fill-opacity:1"
         transform="scale(-0.8)" />
    </marker>
  </defs>
  <sodipodi:namedview
     id="base"
     pagecolor="#e3ffff"
     bordercolor="#666666"
     borderopacity="1.0"
     inkscape:pageopacity="0"
     inkscape:pageshadow="2"
     inkscape:zoom="36.470342"
     inkscape:cx="17.294741"
     inkscape:cy="9.5591651"
     inkscape:document-units="px"
     inkscape:current-layer="g4744"
     showgrid="false"
     units="px"
     inkscape:window-width="1920"
     inkscape:window-height="1017"
     inkscape:window-x="-8"
     inkscape:window-y="-8"
     inkscape:window-maximized="1" />
  <metadata
     id="metadata4144">
    <rdf:RDF>
      <cc:Work
         rdf:about="">
        <dc:format>image/svg+xml</dc:format>
        <dc:type
           rdf:resource="http://purl.org/dc/dcmitype/StillImage" />
        <dc:title />
      </cc:Work>
    </rdf:RDF>
  </metadata>
  <g
     inkscape:label="Layer 1"
     inkscape:groupmode="layer"
     id="layer1"
     transform="translate(0,-1028.3622)">
    <g
       id="g4744">
      <path
         sodipodi:type="star"
         style="fill:#000000;fill-opacity:1;stroke:#ffffff;stroke-width:0.5043515;stroke-miterlimit:4;stroke-dasharray:none;stroke-opacity:1"
         id="path4135"
         sodipodi:sides="15"
         sodipodi:cx="19.973072"
         sodipodi:cy="1032.8955"
         sodipodi:r1="20.598314"
         sodipodi:r2="10.299158"
         sodipodi:arg1="0.8347408"
         sodipodi:arg2="1.0441803"
         inkscape:flatsided="false"
         inkscape:rounded="0"
         inkscape:randomized="0"
         d="m 33.802158,1048.1614 -8.652619,-6.3621 1.247841,10.6671 -5.316853,-9.3314 -3.198746,10.2524 -1.061755,-10.6873 -7.0922407,8.0651 3.3769297,-10.1952 -9.7594226,4.4831 7.2317126,-7.9402 -10.73911123,0.126 9.83606703,-4.3123 -9.86191044,-4.2529 10.73967564,0.061 -7.2794952,-7.8964 9.7862972,4.4241 -3.4383897,-10.1746 7.1407787,8.0221 0.997245,-10.6935 3.260555,10.233 5.260447,-9.3634 -1.183448,10.6745 8.614069,-6.4142 -5.422822,9.2702 10.478241,-2.356 -8.724542,6.2631 10.530631,2.1096 -10.517709,2.173 8.762178,6.2104 -10.492268,-2.2928 z"
         inkscape:transform-center-x="-0.13056096"
         inkscape:transform-center-y="0.0038527972"
         transform="matrix(0.59726044,0,0,0.60199411,-0.04510289,418.56171)" />
      <ellipse
         style="fill:#000000;fill-opacity:1;stroke:#ffffff;stroke-width:0.3020322;stroke-miterlimit:4;stroke-dasharray:none;stroke-opacity:1"
         id="path4137"
         cx="12"
         cy="1040.3622"
         rx="6.7310095"
         ry="6.6221828" />
      <circle
         style="fill:none;fill-opacity:1;stroke:#ffffff;stroke-width:0.69592679;stroke-miterlimit:3.5999999;stroke-dasharray:none;stroke-opacity:1"
         id="path4823"
         cx="49.50993"
         cy="1049.3558"
         r="2.8180847" />
      <rect
         style="fill:#ffffff;fill-opacity:1;stroke:none;stroke-width:3.51200008;stroke-linecap:round;stroke-linejoin:round;stroke-miterlimit:4;stroke-dasharray:3.51200008, 7.02400016999999990;stroke-dashoffset:0;stroke-opacity:1"
         id="rect4942"
         width="0"
         height="0"
         x="0"
         y="0"
         transform="translate(0,1028.3622)" />
      <path
         style="fill:#ffffff;fill-opacity:1"
         d="m 11.583659,1044.4161 c -0.123831,-0.1238 -0.09104,-1.4493 0.03783,-1.529 0.06388,-0.04 0.239171,-0.041 0.38955,0 0.261714,0.066 0.27203,0.1003 0.241001,0.8071 -0.03068,0.6987 -0.04739,0.7401 -0.311247,0.7709 -0.153357,0.018 -0.314067,0 -0.357134,-0.046 z m -1.350559,-1.133 c -0.6500597,-0.3728 -1.2003212,-0.9625 -1.4869677,-1.5937 -0.2434317,-0.5359 -0.2582999,-0.7214 -0.057833,-0.7214 0.082446,0 0.2382148,0.2312 0.3461529,0.5139 0.248071,0.6495 0.9532246,1.3603 1.6228408,1.6357 0.511844,0.2105 0.698176,0.4886 0.326096,0.4866 -0.105767,0 -0.443398,-0.145 -0.750292,-0.3211 z m 2.37154,0.1848 c 2.31e-4,-0.075 0.233321,-0.2332 0.517987,-0.3503 0.669616,-0.2754 1.374769,-0.9862 1.622841,-1.6357 0.18041,-0.4725 0.496054,-0.7083 0.496054,-0.3707 0,0.3174 -0.588766,1.2953 -1.00769,1.6737 -0.663138,0.5991 -1.630156,1.0045 -1.629192,0.683 z m -1.601446,-1.1275 c -0.486608,-0.2137 -1.1145254,-0.9568 -1.2576891,-1.4884 -0.2358553,-0.876 0.073511,-1.6663 0.9184251,-2.3463 0.384353,-0.3093 0.492908,-0.3397 1.20876,-0.3385 0.675404,0 0.849736,0.044 1.234352,0.3042 1.112902,0.7523 1.322698,2.2413 0.455018,3.2295 -0.638777,0.7275 -1.734537,1.0013 -2.558866,0.6395 z m -3.3438918,-2.0318 0,-0.3296 0.8241547,0 0.824154,0 0,0.3296 0,0.3297 -0.824154,0 -0.8241547,0 0,-0.3297 z m 6.8130088,0 0,-0.3296 0.824155,0 0.824154,0 0,0.3296 0,0.3297 -0.824154,0 -0.824155,0 0,-0.3297 z m -5.9314973,-0.7966 c 0.00507,-0.2904 0.4331183,-1.0663 0.8313085,-1.5071 0.4070316,-0.4505 1.3001608,-0.9929 1.6350878,-0.9929 0.350564,0 0.147467,0.283 -0.349914,0.4877 -0.6696163,0.2754 -1.3747699,0.9862 -1.622841,1.6357 -0.1783237,0.467 -0.4995344,0.712 -0.4936413,0.3766 z m 6.2046543,-0.3766 c -0.248072,-0.6495 -0.953225,-1.3603 -1.622841,-1.6357 -0.497382,-0.2047 -0.700478,-0.4877 -0.349915,-0.4877 0.334928,0 1.228056,0.5424 1.635089,0.9929 0.398189,0.4408 0.826206,1.2167 0.831308,1.5071 0.0059,0.3354 -0.315318,0.09 -0.493641,-0.3766 z m -3.166854,-1.4274 c -0.04029,-0.041 -0.07326,-0.4143 -0.07326,-0.8311 l 0,-0.7579 0.357134,0.035 0.357134,0.035 0.03317,0.7042 c 0.02303,0.4891 -0.01055,0.732 -0.109887,0.795 -0.173637,0.1102 -0.464265,0.1209 -0.564291,0.021 z"
         id="path4181"
         inkscape:connector-curvature="0" />
    </g>
  </g>
</svg>
