<?xml version="1.0" encoding="UTF-8" standalone="no"?>
<!-- Created with Inkscape (http://www.inkscape.org/) -->

<svg
   xmlns:dc="http://purl.org/dc/elements/1.1/"
   xmlns:cc="http://creativecommons.org/ns#"
   xmlns:rdf="http://www.w3.org/1999/02/22-rdf-syntax-ns#"
   xmlns:svg="http://www.w3.org/2000/svg"
   xmlns="http://www.w3.org/2000/svg"
   xmlns:sodipodi="http://sodipodi.sourceforge.net/DTD/sodipodi-0.dtd"
   xmlns:inkscape="http://www.inkscape.org/namespaces/inkscape"
   width="24"
   height="24"
   viewBox="0 0 24 24"
   id="svg4139"
   version="1.1"
   inkscape:version="0.91 r13725"
   sodipodi:docname="sun_today.svg">
  <defs
     id="defs4141">
    <marker
       inkscape:stockid="TriangleOutM"
       orient="auto"
       refY="0.0"
       refX="0.0"
       id="TriangleOutM"
       style="overflow:visible"
       inkscape:isstock="true">
      <path
         id="path4454"
         d="M 5.77,0.0 L -2.88,5.0 L -2.88,-5.0 L 5.77,0.0 z "
         style="fill-rule:evenodd;stroke:#ffffff;stroke-width:1pt;stroke-opacity:1;fill:#ffffff;fill-opacity:1"
         transform="scale(0.4)" />
    </marker>
    <marker
       inkscape:stockid="Arrow2Mend"
       orient="auto"
       refY="0.0"
       refX="0.0"
       id="Arrow2Mend"
       style="overflow:visible;"
       inkscape:isstock="true">
      <path
         id="path4192"
         style="fill-rule:evenodd;stroke-width:0.625;stroke-linejoin:round;stroke:#ffffff;stroke-opacity:1;fill:#ffffff;fill-opacity:1"
         d="M 8.7185878,4.0337352 L -2.2072895,0.016013256 L 8.7185884,-4.0017078 C 6.9730900,-1.6296469 6.9831476,1.6157441 8.7185878,4.0337352 z "
         transform="scale(0.6) rotate(180) translate(0,0)" />
    </marker>
    <marker
       inkscape:stockid="TriangleOutL"
       orient="auto"
       refY="0.0"
       refX="0.0"
       id="TriangleOutL"
       style="overflow:visible"
       inkscape:isstock="true">
      <path
         id="path4310"
         d="M 5.77,0.0 L -2.88,5.0 L -2.88,-5.0 L 5.77,0.0 z "
         style="fill-rule:evenodd;stroke:#000000;stroke-width:1pt;stroke-opacity:1;fill:#000000;fill-opacity:1"
         transform="scale(0.8)" />
    </marker>
    <marker
       inkscape:stockid="TriangleInL"
       orient="auto"
       refY="0.0"
       refX="0.0"
       id="TriangleInL"
       style="overflow:visible"
       inkscape:isstock="true">
      <path
         id="path4301"
         d="M 5.77,0.0 L -2.88,5.0 L -2.88,-5.0 L 5.77,0.0 z "
         style="fill-rule:evenodd;stroke:#000000;stroke-width:1pt;stroke-opacity:1;fill:#000000;fill-opacity:1"
         transform="scale(-0.8)" />
    </marker>
  </defs>
  <sodipodi:namedview
     id="base"
     pagecolor="#e3ffff"
     bordercolor="#666666"
     borderopacity="1.0"
     inkscape:pageopacity="0"
     inkscape:pageshadow="2"
     inkscape:zoom="9.1175855"
     inkscape:cx="-4.7096113"
     inkscape:cy="-4.4510607"
     inkscape:document-units="px"
     inkscape:current-layer="g4744"
     showgrid="false"
     units="px"
     inkscape:window-width="1920"
     inkscape:window-height="1017"
     inkscape:window-x="-8"
     inkscape:window-y="-8"
     inkscape:window-maximized="1" />
  <metadata
     id="metadata4144">
    <rdf:RDF>
      <cc:Work
         rdf:about="">
        <dc:format>image/svg+xml</dc:format>
        <dc:type
           rdf:resource="http://purl.org/dc/dcmitype/StillImage" />
        <dc:title></dc:title>
      </cc:Work>
    </rdf:RDF>
  </metadata>
  <g
     inkscape:label="Layer 1"
     inkscape:groupmode="layer"
     id="layer1"
     transform="translate(0,-1028.3622)">
    <g
       id="g4744">
      <path
         sodipodi:type="star"
         style="fill:#000000;fill-opacity:1;stroke:#ffffff;stroke-width:0.5043515;stroke-miterlimit:4;stroke-dasharray:none;stroke-opacity:1"
         id="path4135"
         sodipodi:sides="15"
         sodipodi:cx="19.973072"
         sodipodi:cy="1032.8955"
         sodipodi:r1="20.598314"
         sodipodi:r2="10.299158"
         sodipodi:arg1="0.8347408"
         sodipodi:arg2="1.0441803"
         inkscape:flatsided="false"
         inkscape:rounded="0"
         inkscape:randomized="0"
         d="m 33.802158,1048.1614 -8.652619,-6.3621 1.247841,10.6671 -5.316853,-9.3314 -3.198746,10.2524 -1.061755,-10.6873 -7.0922407,8.0651 3.3769297,-10.1952 -9.7594226,4.4831 7.2317126,-7.9402 -10.73911123,0.126 9.83606703,-4.3123 -9.86191044,-4.2529 10.73967564,0.061 -7.2794952,-7.8964 9.7862972,4.4241 -3.4383897,-10.1746 7.1407787,8.0221 0.997245,-10.6935 3.260555,10.233 5.260447,-9.3634 -1.183448,10.6745 8.614069,-6.4142 -5.422822,9.2702 10.478241,-2.356 -8.724542,6.2631 10.530631,2.1096 -10.517709,2.173 8.762178,6.2104 -10.492268,-2.2928 z"
         inkscape:transform-center-x="-0.13056096"
         inkscape:transform-center-y="0.0038527972"
         transform="matrix(0.59726044,0,0,0.60199411,37.684184,440.27799)" />
      <ellipse
         style="fill:#000000;fill-opacity:1;stroke:#ffffff;stroke-width:0.3020322;stroke-miterlimit:4;stroke-dasharray:none;stroke-opacity:1"
         id="path4137"
         cx="49.72929"
         cy="1062.0785"
         rx="6.7310095"
         ry="6.6221828" />
      <rect
         style="fill:#ffffff;fill-opacity:1;stroke:none;stroke-width:3.51200008;stroke-linecap:round;stroke-linejoin:round;stroke-miterlimit:4;stroke-dasharray:3.51200008, 7.02400016999999990;stroke-dashoffset:0;stroke-opacity:1"
         id="rect4942"
         width="0"
         height="0"
         x="0"
         y="0"
         transform="translate(0,1028.3622)" />
      <path
         sodipodi:type="star"
         style="fill:#000000;fill-opacity:1;stroke:#ffffff;stroke-width:0.5043515;stroke-miterlimit:4;stroke-dasharray:none;stroke-opacity:1"
         id="path4135-2"
         sodipodi:sides="15"
         sodipodi:cx="19.973072"
         sodipodi:cy="1032.8955"
         sodipodi:r1="20.598314"
         sodipodi:r2="10.299158"
         sodipodi:arg1="0.8347408"
         sodipodi:arg2="1.0441803"
         inkscape:flatsided="false"
         inkscape:rounded="0"
         inkscape:randomized="0"
         d="m 33.802158,1048.1614 -8.652619,-6.3621 1.247841,10.6671 -5.316853,-9.3314 -3.198746,10.2524 -1.061755,-10.6873 -7.0922407,8.0651 3.3769297,-10.1952 -9.7594226,4.4831 7.2317126,-7.9402 -10.73911123,0.126 9.83606703,-4.3123 -9.86191044,-4.2529 10.73967564,0.061 -7.2794952,-7.8964 9.7862972,4.4241 -3.4383897,-10.1746 7.1407787,8.0221 0.997245,-10.6935 3.260555,10.233 5.260447,-9.3634 -1.183448,10.6745 8.614069,-6.4142 -5.422822,9.2702 10.478241,-2.356 -8.724542,6.2631 10.530631,2.1096 -10.517709,2.173 8.762178,6.2104 -10.492268,-2.2928 z"
         inkscape:transform-center-x="-0.13056096"
         inkscape:transform-center-y="0.0038527972"
         transform="matrix(0.59726044,0,0,0.60199411,-0.04510289,418.56171)" />
      <path
         style="fill:none;fill-rule:evenodd;stroke:none;stroke-width:1px;stroke-linecap:butt;stroke-linejoin:miter;stroke-opacity:1"
         d="m 47.326126,1049.5106 c -4.024098,2.8342 2.362301,8.1035 3.125828,5.8129 1.089139,-3.2674 -1.298181,-7.2344 -3.125828,-5.8129 z"
         id="path4343"
         inkscape:connector-curvature="0" />
      <path
         sodipodi:type="star"
         style="fill:#ffffff;fill-opacity:1;stroke:none;stroke-width:0.1;stroke-linecap:round;stroke-linejoin:round;stroke-miterlimit:4;stroke-dasharray:none;stroke-dashoffset:0;stroke-opacity:1"
         id="path4367"
         sodipodi:sides="15"
         sodipodi:cx="49.720309"
         sodipodi:cy="1062.0913"
         sodipodi:r1="7.8130994"
         sodipodi:r2="3.9065497"
         sodipodi:arg1="0.80961488"
         sodipodi:arg2="1.0190544"
         inkscape:flatsided="false"
         inkscape:rounded="0"
         inkscape:randomized="0"
         d="m 55.109609,1067.7482 -3.341597,-2.33 0.574818,4.0329 -2.10501,-3.4877 -1.115226,3.9181 -0.504448,-4.0423 -2.612437,3.1257 1.183337,-3.8981 -3.657935,1.793 2.666513,-3.0798 -4.070941,0.1502 3.688624,-1.729 -3.780046,-1.5186 4.07294,-0.079 -2.835546,-2.9248 3.753006,1.5843 -1.400755,-3.8253 2.784144,2.9738 0.27624,-4.0643 1.333878,3.8491 1.905471,-3.6006 -0.347028,4.0589 3.205228,-2.5143 -1.967929,3.5669 3.950772,-0.9933 -3.248558,2.4581 4.013192,0.6996 -3.967481,0.9242 3.381694,2.2714 -4.000391,-0.7694 z"
         inkscape:transform-center-x="-0.062478497"
         inkscape:transform-center-y="0.023003567" />
      <ellipse
         style="fill:#000000;fill-opacity:1;stroke:#ffffff;stroke-width:0.30242056;stroke-miterlimit:4;stroke-dasharray:none;stroke-opacity:1"
         id="path4137-4"
         cx="12"
         cy="1040.3622"
         rx="6.7310095"
         ry="6.6221828" />
      <path
         style="fill:#ffffff;fill-opacity:1"
         d="m 11.638113,1045.2306 c -0.146303,-0.1463 -0.107561,-1.7123 0.04469,-1.8065 0.07547,-0.047 0.282574,-0.048 0.460243,0 0.309207,0.078 0.321396,0.1185 0.284736,0.9536 -0.03625,0.8255 -0.05599,0.8744 -0.367729,0.9108 -0.181187,0.021 -0.371062,0 -0.421944,-0.054 z m -1.595648,-1.3386 c -0.7680275,-0.4405 -1.4181465,-1.1372 -1.7568115,-1.8829 -0.287607,-0.6332 -0.305174,-0.8523 -0.06833,-0.8523 0.09741,0 0.281445,0.2731 0.40897,0.6071 0.293089,0.7674 1.126209,1.6072 1.9173415,1.9326 0.60473,0.2487 0.824876,0.5772 0.385273,0.5749 -0.12496,0 -0.523862,-0.1714 -0.886449,-0.3794 z m 2.801908,0.2183 c 2.73e-4,-0.089 0.275663,-0.2755 0.611988,-0.4138 0.791131,-0.3254 1.62425,-1.1652 1.91734,-1.9326 0.21315,-0.5582 0.586074,-0.8368 0.586074,-0.438 0,0.375 -0.69561,1.5304 -1.190557,1.9775 -0.783479,0.7078 -1.925983,1.1868 -1.924845,0.8069 z m -1.892063,-1.3321 c -0.574914,-0.2525 -1.3167805,-1.1304 -1.4859245,-1.7585 -0.278657,-1.035 0.08685,-1.9687 1.0850935,-2.7721 0.454102,-0.3654 0.582357,-0.4013 1.428116,-0.3999 0.797971,0 1.003939,0.052 1.458353,0.3594 1.314861,0.8888 1.562729,2.648 0.537591,3.8156 -0.754698,0.8595 -2.049307,1.183 -3.023229,0.7555 z m -3.9507155,-2.4005 0,-0.3894 0.973716,0 0.973715,0 0,0.3894 0,0.3895 -0.973715,0 -0.973716,0 0,-0.3895 z m 8.0493795,0 0,-0.3894 0.973716,0 0.973715,0 0,0.3894 0,0.3895 -0.973715,0 -0.973716,0 0,-0.3895 z m -7.0078985,-0.9412 c 0.006,-0.3431 0.511717,-1.2598 0.982168,-1.7806 0.480897,-0.5322 1.5361035,-1.173 1.9318105,-1.173 0.414182,0 0.174228,0.3343 -0.413412,0.5762 -0.7911335,0.3253 -1.6242535,1.1651 -1.9173425,1.9325 -0.210685,0.5517 -0.590186,0.8412 -0.583224,0.4449 z m 7.3306255,-0.4449 c -0.29309,-0.7674 -1.126209,-1.6072 -1.91734,-1.9325 -0.587643,-0.2419 -0.827596,-0.5762 -0.413415,-0.5762 0.395708,0 1.450913,0.6408 1.931811,1.173 0.470449,0.5208 0.97614,1.4375 0.982167,1.7806 0.007,0.3963 -0.372539,0.1064 -0.583223,-0.4449 z m -3.741549,-1.6864 c -0.0476,-0.049 -0.08655,-0.4895 -0.08655,-0.982 l 0,-0.8954 0.421944,0.041 0.421943,0.041 0.03919,0.832 c 0.02721,0.5779 -0.01246,0.8648 -0.129829,0.9393 -0.205147,0.1302 -0.548516,0.1428 -0.666694,0.025 z"
         id="path4181-29"
         inkscape:connector-curvature="0" />
      <path
         style="fill:#ffffff;fill-opacity:1"
         d="m 33.418812,1078.3115 c -0.631337,0.5301 -1.079054,0.8578 -1.152689,0.8436 -0.06761,-0.017 -0.08174,-0.074 -0.0929,-0.3877 l -0.01305,-0.3724 -0.721435,0 -0.721479,0 -1.7e-5,0.7214 -1.3e-5,0.7216 0.372509,0.016 c 0.312871,0.016 0.374817,0.026 0.387529,0.092 0.01388,0.073 -0.822395,1.1899 -1.000672,1.338 -0.06089,0.048 -0.143972,-0.036 -0.596079,-0.5993 -0.325097,-0.4055 -0.520735,-0.6878 -0.511196,-0.7375 0.01289,-0.069 0.07107,-0.084 0.387817,-0.094 l 0.37235,-0.017 1.5e-5,-0.7214 1.6e-5,-0.7213 -0.721435,0 -0.72148,0 -0.01305,0.3725 c -0.01124,0.3151 -0.02606,0.3747 -0.09384,0.3876 -0.05013,0.016 -0.3319,-0.1861 -0.737479,-0.5112 -0.572185,-0.4589 -0.649135,-0.5359 -0.597629,-0.598 0.0294,-0.043 0.341415,-0.2925 0.686289,-0.5628 0.73717,-0.5784 0.752256,-0.579 0.752238,-0.031 l 4.2e-5,0.3562 0.723285,0 0.723378,0 -3.2e-5,-0.7216 1.7e-5,-0.7214 -0.373021,-0.016 c -0.334079,-0.017 -0.37408,-0.023 -0.383735,-0.1041 -0.0114,-0.094 0.968767,-1.3565 1.052558,-1.3563 0.08379,2e-4 1.060155,1.2627 1.048737,1.3563 -0.01008,0.081 -0.04974,0.092 -0.383943,0.1041 l -0.372998,0.016 3.2e-5,0.7214 -1.7e-5,0.7216 0.721435,0 0.721525,0 0.01305,-0.3724 c 0.01107,-0.313 0.02603,-0.375 0.09288,-0.3877 0.07166,-0.016 1.189403,0.8217 1.335713,0.9979 0.04572,0.056 0.01504,0.1008 -0.1825,0.2665 z"
         id="path4444"
         inkscape:connector-curvature="0" />
    </g>
  </g>
</svg>
