<?xml version="1.0" encoding="UTF-8" standalone="no"?>
<!-- Created with Inkscape (http://www.inkscape.org/) -->

<svg
   xmlns:dc="http://purl.org/dc/elements/1.1/"
   xmlns:cc="http://creativecommons.org/ns#"
   xmlns:rdf="http://www.w3.org/1999/02/22-rdf-syntax-ns#"
   xmlns:svg="http://www.w3.org/2000/svg"
   xmlns="http://www.w3.org/2000/svg"
   xmlns:sodipodi="http://sodipodi.sourceforge.net/DTD/sodipodi-0.dtd"
   xmlns:inkscape="http://www.inkscape.org/namespaces/inkscape"
   width="24"
   height="24"
   viewBox="0 0 24 24"
   id="svg4139"
   version="1.1"
   inkscape:version="0.91 r13725"
   sodipodi:docname="sun_today.svg">
  <defs
     id="defs4141">
    <marker
       inkscape:stockid="TriangleOutM"
       orient="auto"
       refY="0.0"
       refX="0.0"
       id="TriangleOutM"
       style="overflow:visible"
       inkscape:isstock="true">
      <path
         id="path4454"
         d="M 5.77,0.0 L -2.88,5.0 L -2.88,-5.0 L 5.77,0.0 z "
         style="fill-rule:evenodd;stroke:#ffffff;stroke-width:1pt;stroke-opacity:1;fill:#ffffff;fill-opacity:1"
         transform="scale(0.4)" />
    </marker>
    <marker
       inkscape:stockid="Arrow2Mend"
       orient="auto"
       refY="0.0"
       refX="0.0"
       id="Arrow2Mend"
       style="overflow:visible;"
       inkscape:isstock="true">
      <path
         id="path4192"
         style="fill-rule:evenodd;stroke-width:0.625;stroke-linejoin:round;stroke:#ffffff;stroke-opacity:1;fill:#ffffff;fill-opacity:1"
         d="M 8.7185878,4.0337352 L -2.2072895,0.016013256 L 8.7185884,-4.0017078 C 6.9730900,-1.6296469 6.9831476,1.6157441 8.7185878,4.0337352 z "
         transform="scale(0.6) rotate(180) translate(0,0)" />
    </marker>
    <marker
       inkscape:stockid="TriangleOutL"
       orient="auto"
       refY="0.0"
       refX="0.0"
       id="TriangleOutL"
       style="overflow:visible"
       inkscape:isstock="true">
      <path
         id="path4310"
         d="M 5.77,0.0 L -2.88,5.0 L -2.88,-5.0 L 5.77,0.0 z "
         style="fill-rule:evenodd;stroke:#000000;stroke-width:1pt;stroke-opacity:1;fill:#000000;fill-opacity:1"
         transform="scale(0.8)" />
    </marker>
    <marker
       inkscape:stockid="TriangleInL"
       orient="auto"
       refY="0.0"
       refX="0.0"
       id="TriangleInL"
       style="overflow:visible"
       inkscape:isstock="true">
      <path
         id="path4301"
         d="M 5.77,0.0 L -2.88,5.0 L -2.88,-5.0 L 5.77,0.0 z "
         style="fill-rule:evenodd;stroke:#000000;stroke-width:1pt;stroke-opacity:1;fill:#000000;fill-opacity:1"
         transform="scale(-0.8)" />
    </marker>
  </defs>
  <sodipodi:namedview
     id="base"
     pagecolor="#e3ffff"
     bordercolor="#666666"
     borderopacity="1.0"
     inkscape:pageopacity="0"
     inkscape:pageshadow="2"
     inkscape:zoom="18.235171"
     inkscape:cx="22.880742"
     inkscape:cy="6.4450069"
     inkscape:document-units="px"
     inkscape:current-layer="g4744"
     showgrid="false"
     units="px"
     inkscape:window-width="1920"
     inkscape:window-height="1017"
     inkscape:window-x="-8"
     inkscape:window-y="-8"
     inkscape:window-maximized="1" />
  <metadata
     id="metadata4144">
    <rdf:RDF>
      <cc:Work
         rdf:about="">
        <dc:format>image/svg+xml</dc:format>
        <dc:type
           rdf:resource="http://purl.org/dc/dcmitype/StillImage" />
        <dc:title />
      </cc:Work>
    </rdf:RDF>
  </metadata>
  <g
     inkscape:label="Layer 1"
     inkscape:groupmode="layer"
     id="layer1"
     transform="translate(0,-1028.3622)">
    <g
       id="g4744">
      <path
         sodipodi:type="star"
         style="fill:#000000;fill-opacity:1;stroke:#ffffff;stroke-width:0.5043515;stroke-miterlimit:4;stroke-dasharray:none;stroke-opacity:1"
         id="path4135"
         sodipodi:sides="15"
         sodipodi:cx="19.973072"
         sodipodi:cy="1032.8955"
         sodipodi:r1="20.598314"
         sodipodi:r2="10.299158"
         sodipodi:arg1="0.8347408"
         sodipodi:arg2="1.0441803"
         inkscape:flatsided="false"
         inkscape:rounded="0"
         inkscape:randomized="0"
         d="m 33.802158,1048.1614 -8.652619,-6.3621 1.247841,10.6671 -5.316853,-9.3314 -3.198746,10.2524 -1.061755,-10.6873 -7.0922407,8.0651 3.3769297,-10.1952 -9.7594226,4.4831 7.2317126,-7.9402 -10.73911123,0.126 9.83606703,-4.3123 -9.86191044,-4.2529 10.73967564,0.061 -7.2794952,-7.8964 9.7862972,4.4241 -3.4383897,-10.1746 7.1407787,8.0221 0.997245,-10.6935 3.260555,10.233 5.260447,-9.3634 -1.183448,10.6745 8.614069,-6.4142 -5.422822,9.2702 10.478241,-2.356 -8.724542,6.2631 10.530631,2.1096 -10.517709,2.173 8.762178,6.2104 -10.492268,-2.2928 z"
         inkscape:transform-center-x="-0.13056096"
         inkscape:transform-center-y="0.0038527972"
         transform="matrix(0.59726044,0,0,0.60199411,-0.04510289,418.56171)" />
      <ellipse
         style="fill:#000000;fill-opacity:1;stroke:#ffffff;stroke-width:0.3020322;stroke-miterlimit:4;stroke-dasharray:none;stroke-opacity:1"
         id="path4137"
         cx="12"
         cy="1040.3622"
         rx="6.7310095"
         ry="6.6221828" />
      <rect
         style="fill:#ffffff;fill-opacity:1;stroke:none;stroke-width:3.51200008;stroke-linecap:round;stroke-linejoin:round;stroke-miterlimit:4;stroke-dasharray:3.51200008, 7.02400016999999990;stroke-dashoffset:0;stroke-opacity:1"
         id="rect4942"
         width="0"
         height="0"
         x="0"
         y="0"
         transform="translate(0,1028.3622)" />
      <path
         style="fill:#ffffff;fill-opacity:1"
         d="m 11.638113,1045.2306 c -0.146303,-0.1463 -0.107561,-1.7123 0.04469,-1.8065 0.07547,-0.047 0.282574,-0.048 0.460242,0 0.309208,0.078 0.321396,0.1185 0.284736,0.9536 -0.03625,0.8255 -0.05599,0.8744 -0.367729,0.9108 -0.181187,0.021 -0.371062,0 -0.421944,-0.054 z m -1.595648,-1.3386 c -0.7680279,-0.4405 -1.4181464,-1.1372 -1.7568114,-1.8829 -0.2876078,-0.6332 -0.3051742,-0.8523 -0.068328,-0.8523 0.097408,0 0.2814442,0.2731 0.4089701,0.6071 0.293089,0.7674 1.1262083,1.6072 1.9173413,1.9326 0.60473,0.2487 0.824876,0.5772 0.385273,0.5749 -0.12496,0 -0.523862,-0.1714 -0.886449,-0.3794 z m 2.801908,0.2183 c 2.73e-4,-0.089 0.275663,-0.2755 0.611988,-0.4138 0.791132,-0.3254 1.624251,-1.1652 1.917341,-1.9326 0.21315,-0.5582 0.586074,-0.8368 0.586074,-0.438 0,0.375 -0.69561,1.5304 -1.190557,1.9775 -0.78348,0.7078 -1.925984,1.1868 -1.924846,0.8069 z m -1.892063,-1.3321 c -0.574914,-0.2525 -1.3167811,-1.1304 -1.4859251,-1.7585 -0.2786567,-1.035 0.08685,-1.9687 1.0850941,-2.7721 0.454102,-0.3654 0.582357,-0.4013 1.428116,-0.3999 0.797971,0 1.003939,0.052 1.458353,0.3594 1.314862,0.8888 1.56273,2.648 0.537591,3.8156 -0.754698,0.8595 -2.049308,1.183 -3.023229,0.7555 z m -3.950716,-2.4005 0,-0.3894 0.9737159,0 0.9737152,0 0,0.3894 0,0.3895 -0.9737152,0 -0.9737159,0 0,-0.3895 z m 8.049381,0 0,-0.3894 0.973716,0 0.973715,0 0,0.3894 0,0.3895 -0.973715,0 -0.973716,0 0,-0.3895 z m -7.0078995,-0.9412 c 0.00599,-0.3431 0.5117172,-1.2598 0.9821679,-1.7806 0.4808965,-0.5322 1.5361036,-1.173 1.9318106,-1.173 0.414182,0 0.174228,0.3343 -0.413413,0.5762 -0.7911331,0.3253 -1.6242529,1.1651 -1.9173421,1.9325 -0.2106845,0.5517 -0.590186,0.8412 -0.5832234,0.4449 z m 7.3306265,-0.4449 c -0.29309,-0.7674 -1.126209,-1.6072 -1.917341,-1.9325 -0.587643,-0.2419 -0.827596,-0.5762 -0.413415,-0.5762 0.395708,0 1.450914,0.6408 1.931812,1.173 0.470449,0.5208 0.97614,1.4375 0.982167,1.7806 0.007,0.3963 -0.372539,0.1064 -0.583223,-0.4449 z m -3.74155,-1.6864 c -0.0476,-0.049 -0.08655,-0.4895 -0.08655,-0.982 l 0,-0.8954 0.421944,0.041 0.421943,0.041 0.03919,0.832 c 0.02721,0.5779 -0.01246,0.8648 -0.129829,0.9393 -0.205147,0.1302 -0.548516,0.1428 -0.666694,0.025 z"
         id="path4181"
         inkscape:connector-curvature="0" />
      <path
         sodipodi:type="star"
         style="fill:#000000;fill-opacity:1;stroke:#ffffff;stroke-width:0.5043515;stroke-miterlimit:4;stroke-dasharray:none;stroke-opacity:1"
         id="path4135-3"
         sodipodi:sides="15"
         sodipodi:cx="19.973072"
         sodipodi:cy="1032.8955"
         sodipodi:r1="20.598314"
         sodipodi:r2="10.299158"
         sodipodi:arg1="0.8347408"
         sodipodi:arg2="1.0441803"
         inkscape:flatsided="false"
         inkscape:rounded="0"
         inkscape:randomized="0"
         d="m 33.802158,1048.1614 -8.652619,-6.3621 1.247841,10.6671 -5.316853,-9.3314 -3.198746,10.2524 -1.061755,-10.6873 -7.0922407,8.0651 3.3769297,-10.1952 -9.7594226,4.4831 7.2317126,-7.9402 -10.73911123,0.126 9.83606703,-4.3123 -9.86191044,-4.2529 10.73967564,0.061 -7.2794952,-7.8964 9.7862972,4.4241 -3.4383897,-10.1746 7.1407787,8.0221 0.997245,-10.6935 3.260555,10.233 5.260447,-9.3634 -1.183448,10.6745 8.614069,-6.4142 -5.422822,9.2702 10.478241,-2.356 -8.724542,6.2631 10.530631,2.1096 -10.517709,2.173 8.762178,6.2104 -10.492268,-2.2928 z"
         inkscape:transform-center-x="-0.13056096"
         inkscape:transform-center-y="0.0038527972"
         transform="matrix(0.59726044,0,0,0.60199411,-57.957172,422.49608)" />
      <ellipse
         style="fill:#000000;fill-opacity:1;stroke:#ffffff;stroke-width:0.3020322;stroke-miterlimit:4;stroke-dasharray:none;stroke-opacity:1"
         id="path4137-7"
         cx="-45.912067"
         cy="1044.2965"
         rx="6.7310095"
         ry="6.6221828" />
      <path
         style="fill:#ffffff;fill-opacity:1"
         d="m -46.32841,1048.3504 c -0.123831,-0.1238 -0.09104,-1.4493 0.03783,-1.529 0.06388,-0.04 0.239171,-0.041 0.38955,0 0.261714,0.066 0.27203,0.1003 0.241001,0.8071 -0.03068,0.6987 -0.04739,0.7401 -0.311247,0.7709 -0.153357,0.018 -0.314067,0 -0.357134,-0.046 z m -1.350559,-1.133 c -0.65006,-0.3728 -1.200321,-0.9625 -1.486968,-1.5937 -0.243431,-0.5359 -0.2583,-0.7214 -0.05783,-0.7214 0.08245,0 0.238215,0.2312 0.346153,0.5139 0.248071,0.6495 0.953225,1.3603 1.622841,1.6357 0.511844,0.2105 0.698176,0.4886 0.326096,0.4866 -0.105767,0 -0.443398,-0.145 -0.750292,-0.3211 z m 2.37154,0.1848 c 2.31e-4,-0.075 0.233321,-0.2332 0.517987,-0.3503 0.669616,-0.2754 1.374769,-0.9862 1.622841,-1.6357 0.18041,-0.4725 0.496054,-0.7083 0.496054,-0.3707 0,0.3174 -0.588766,1.2953 -1.00769,1.6737 -0.663138,0.5991 -1.630156,1.0045 -1.629192,0.683 z m -1.601446,-1.1275 c -0.486608,-0.2137 -1.114525,-0.9568 -1.257689,-1.4884 -0.235855,-0.876 0.07351,-1.6663 0.918425,-2.3463 0.384353,-0.3093 0.492908,-0.3397 1.20876,-0.3385 0.675404,0 0.849736,0.044 1.234352,0.3042 1.112902,0.7523 1.322698,2.2413 0.455018,3.2295 -0.638777,0.7275 -1.734537,1.0013 -2.558866,0.6395 z m -3.343892,-2.0318 0,-0.3296 0.824155,0 0.824154,0 0,0.3296 0,0.3297 -0.824154,0 -0.824155,0 0,-0.3297 z m 6.813009,0 0,-0.3296 0.824155,0 0.824154,0 0,0.3296 0,0.3297 -0.824154,0 -0.824155,0 0,-0.3297 z m -5.931497,-0.7966 c 0.0051,-0.2904 0.433118,-1.0663 0.831308,-1.5071 0.407032,-0.4505 1.300161,-0.9929 1.635088,-0.9929 0.350564,0 0.147467,0.283 -0.349914,0.4877 -0.669616,0.2754 -1.37477,0.9862 -1.622841,1.6357 -0.178324,0.467 -0.499534,0.712 -0.493641,0.3766 z m 6.204654,-0.3766 c -0.248072,-0.6495 -0.953225,-1.3603 -1.622841,-1.6357 -0.497382,-0.2047 -0.700478,-0.4877 -0.349915,-0.4877 0.334928,0 1.228056,0.5424 1.635089,0.9929 0.398189,0.4408 0.826206,1.2167 0.831308,1.5071 0.0059,0.3354 -0.315318,0.09 -0.493641,-0.3766 z m -3.166854,-1.4274 c -0.04029,-0.041 -0.07326,-0.4143 -0.07326,-0.8311 l 0,-0.7579 0.357134,0.035 0.357134,0.035 0.03317,0.7042 c 0.02303,0.4891 -0.01055,0.732 -0.109887,0.795 -0.173637,0.1102 -0.464265,0.1209 -0.564291,0.021 z"
         id="path4181-2"
         inkscape:connector-curvature="0" />
    </g>
  </g>
</svg>
