<?xml version="1.0" encoding="UTF-8" standalone="no"?>
<!-- Created with Inkscape (http://www.inkscape.org/) -->

<svg
   xmlns:dc="http://purl.org/dc/elements/1.1/"
   xmlns:cc="http://creativecommons.org/ns#"
   xmlns:rdf="http://www.w3.org/1999/02/22-rdf-syntax-ns#"
   xmlns:svg="http://www.w3.org/2000/svg"
   xmlns="http://www.w3.org/2000/svg"
   xmlns:sodipodi="http://sodipodi.sourceforge.net/DTD/sodipodi-0.dtd"
   xmlns:inkscape="http://www.inkscape.org/namespaces/inkscape"
   width="128"
   height="128"
   viewBox="0 0 128 128"
   id="svg4139"
   version="1.1"
   inkscape:version="0.91 r13725"
   sodipodi:docname="sunset.svg">
  <defs
     id="defs4141">
    <marker
       inkscape:stockid="TriangleOutM"
       orient="auto"
       refY="0.0"
       refX="0.0"
       id="TriangleOutM"
       style="overflow:visible"
       inkscape:isstock="true">
      <path
         id="path4931"
         d="M 5.77,0.0 L -2.88,5.0 L -2.88,-5.0 L 5.77,0.0 z "
         style="fill-rule:evenodd;stroke:#000000;stroke-width:1.0pt"
         transform="scale(0.4)" />
    </marker>
    <marker
       inkscape:isstock="true"
       style="overflow:visible"
       id="marker5936"
       refX="0.0"
       refY="0.0"
       orient="auto"
       inkscape:stockid="TriangleOutM">
      <path
         transform="scale(0.4)"
         style="fill-rule:evenodd;stroke:#000000;stroke-width:1pt;stroke-opacity:1;fill:#000000;fill-opacity:1"
         d="M 5.77,0.0 L -2.88,5.0 L -2.88,-5.0 L 5.77,0.0 z "
         id="path5938" />
    </marker>
    <marker
       inkscape:stockid="Arrow2Mend"
       orient="auto"
       refY="0.0"
       refX="0.0"
       id="Arrow2Mend"
       style="overflow:visible;"
       inkscape:isstock="true">
      <path
         id="path4813"
         style="fill-rule:evenodd;stroke-width:0.625;stroke-linejoin:round;stroke:#000000;stroke-opacity:1;fill:#000000;fill-opacity:1"
         d="M 8.7185878,4.0337352 L -2.2072895,0.016013256 L 8.7185884,-4.0017078 C 6.9730900,-1.6296469 6.9831476,1.6157441 8.7185878,4.0337352 z "
         transform="scale(0.6) rotate(180) translate(0,0)" />
    </marker>
    <marker
       inkscape:stockid="Arrow1Mend"
       orient="auto"
       refY="0.0"
       refX="0.0"
       id="Arrow1Mend"
       style="overflow:visible;"
       inkscape:isstock="true">
      <path
         id="path4795"
         d="M 0.0,0.0 L 5.0,-5.0 L -12.5,0.0 L 5.0,5.0 L 0.0,0.0 z "
         style="fill-rule:evenodd;stroke:#000000;stroke-width:1pt;stroke-opacity:1;fill:#000000;fill-opacity:1"
         transform="scale(0.4) rotate(180) translate(10,0)" />
    </marker>
    <marker
       inkscape:stockid="Arrow2Lend"
       orient="auto"
       refY="0.0"
       refX="0.0"
       id="Arrow2Lend"
       style="overflow:visible;"
       inkscape:isstock="true">
      <path
         id="path4807"
         style="fill-rule:evenodd;stroke-width:0.625;stroke-linejoin:round;stroke:#000000;stroke-opacity:1;fill:#000000;fill-opacity:1"
         d="M 8.7185878,4.0337352 L -2.2072895,0.016013256 L 8.7185884,-4.0017078 C 6.9730900,-1.6296469 6.9831476,1.6157441 8.7185878,4.0337352 z "
         transform="scale(1.1) rotate(180) translate(1,0)" />
    </marker>
  </defs>
  <sodipodi:namedview
     id="base"
     pagecolor="#ffffff"
     bordercolor="#666666"
     borderopacity="1.0"
     inkscape:pageopacity="0.0"
     inkscape:pageshadow="2"
     inkscape:zoom="1.1396982"
     inkscape:cx="-91.966111"
     inkscape:cy="-17.095351"
     inkscape:document-units="px"
     inkscape:current-layer="g4744"
     showgrid="false"
     units="px"
     inkscape:window-width="1920"
     inkscape:window-height="1017"
     inkscape:window-x="-8"
     inkscape:window-y="-8"
     inkscape:window-maximized="1" />
  <metadata
     id="metadata4144">
    <rdf:RDF>
      <cc:Work
         rdf:about="">
        <dc:format>image/svg+xml</dc:format>
        <dc:type
           rdf:resource="http://purl.org/dc/dcmitype/StillImage" />
        <dc:title />
      </cc:Work>
    </rdf:RDF>
  </metadata>
  <g
     inkscape:label="Layer 1"
     inkscape:groupmode="layer"
     id="layer1"
     transform="translate(0,-924.36216)">
    <g
       id="g4744">
      <path
         style="fill:#000000;fill-opacity:1;stroke:#00838f;stroke-width:0.23854329;stroke-miterlimit:4;stroke-dasharray:none;stroke-opacity:1"
         d="m 334.69834,925.29111 c -0.68882,0.0455 -1.66415,1.29012 -2.3351,3.05525 l -5.94303,15.63754 a 28.766816,28.766816 0 0 0 -7.54602,-1.3686 l -0.005,-8.302 c -0.001,-1.76684 -0.62263,-3.22044 -1.39245,-3.25854 -0.76983,-0.038 -1.38883,1.3554 -1.38767,3.12217 l 0.005,8.41927 a 28.766816,28.766816 0 0 0 -9.10834,1.9475 l -6.71581,-14.95074 c -0.88432,-1.96884 -2.18513,-3.36907 -2.91649,-3.13899 -0.73136,0.23009 -0.60678,2.00039 0.27753,3.96909 l 6.84741,15.24264 a 28.766816,28.766816 0 0 0 -6.30191,4.3808 l -5.86887,-5.8617 c -1.25014,-1.2485 -2.71846,-1.8381 -3.28972,-1.3206 -0.57126,0.5174 -0.0228,1.9407 1.22737,3.1892 l 5.96935,5.9598 a 28.766816,28.766816 0 0 0 -5.06737,7.8093 l -15.3289,-5.8259 c -2.01741,-0.7667 -3.92576,-0.8354 -4.28023,-0.1554 -0.35447,0.6798 0.98282,1.8432 3.00023,2.6101 l 15.63514,5.9431 a 28.766816,28.766816 0 0 0 -1.36852,7.5484 l -8.29967,0 c -1.76681,0 -3.22056,0.6204 -3.25862,1.3901 -0.038,0.7697 1.35304,1.3889 3.11986,1.3876 l 8.41929,0 a 28.766816,28.766816 0 0 0 0.61966,4.6009 l -27.63605,0 c -1.24513,0 -2.24658,1.1052 -2.24658,2.4762 0,1.3711 1.00145,2.4739 2.24658,2.4739 l 27.98058,0 -0.0957,0.042 60.66724,0 -0.11245,-0.042 23.38214,0 c 1.24514,0 2.24658,-1.1028 2.24658,-2.4739 0,-1.371 -1.00144,-2.4762 -2.24658,-2.4762 l -27.96861,0 a 28.766816,28.766816 0 0 0 0.57899,-4.6392 l 8.29967,0 c 1.76682,0 3.22056,-0.6225 3.25862,-1.3924 0.038,-0.7699 -1.35304,-1.3888 -3.11985,-1.3876 l -8.4193,0 a 28.766816,28.766816 0 0 0 -1.94512,-9.1085 l 14.9461,-6.7133 c 1.96873,-0.8843 3.36905,-2.1852 3.13899,-2.9165 -0.23006,-0.7314 -2.00047,-0.6093 -3.9692,0.2751 l -15.24038,6.8449 a 28.766816,28.766816 0 0 0 -4.3831,-6.2971 l 5.86407,-5.8712 c 1.24851,-1.2501 1.83572,-2.716 1.31828,-3.2873 -0.51743,-0.5712 -1.93833,-0.026 -3.18684,1.2249 l -5.96217,5.9695 a 28.766816,28.766816 0 0 0 -7.8092,-5.0675 l 5.8258,-15.32884 c 0.7668,-2.0174 0.83773,-3.92574 0.15791,-4.2802 -0.085,-0.044 -0.17913,-0.0622 -0.27754,-0.0546 z"
         id="path4687"
         inkscape:connector-curvature="0" />
      <path
         style="fill:none;fill-rule:evenodd;stroke:#000000;stroke-width:3.51200008;stroke-linecap:round;stroke-linejoin:round;stroke-miterlimit:4;stroke-dasharray:3.51200008, 7.02400017;stroke-dashoffset:0;stroke-opacity:1;marker-end:url(#marker5936)"
         d="M 9.7376987,939.6451 C 32.197049,948.94147 46.758255,966.88375 58.15181,985.99472"
         id="path5928"
         inkscape:connector-curvature="0" />
      <path
         style="fill:#000000;fill-opacity:1;stroke:#ffffff;stroke-width:1.18472564;stroke-miterlimit:4;stroke-dasharray:none;stroke-opacity:1"
         d="m 54.374491,991.45751 -0.423776,25.31979 -18.086849,-17.60239 9.830438,23.31899 -23.618981,-8.6744 18.389535,17.2826 -25.066164,1.7528 20.370043,7.0801 59.879155,0 15.584558,-4.4943 -24.945091,-3.1018 19.239991,-16.2708 -24.025485,7.3916 11.00087,-22.7569 -18.954581,16.605 0.861972,-25.31119 -10.608795,22.94719 -9.42684,-23.48629 z"
         id="path4135"
         inkscape:connector-curvature="0" />
      <path
         style="fill:#000000;fill-opacity:1;stroke:#ffffff;stroke-width:1.18472576;stroke-miterlimit:4;stroke-dasharray:none;stroke-opacity:1"
         d="m 63.976454,1012.4385 a 25.942252,26.368578 85.67206 0 0 -2.634908,0.069 25.942252,26.368578 85.67206 0 0 -24.345456,27.4272 l 52.58562,0 a 25.942252,26.368578 85.67206 0 0 0.01152,-3.5488 25.942252,26.368578 85.67206 0 0 -25.616784,-23.9476 z"
         id="path4137"
         inkscape:connector-curvature="0" />
      <rect
         style="fill:#000000;fill-opacity:1;stroke:none;stroke-width:0.616;stroke-miterlimit:4;stroke-dasharray:none;stroke-opacity:1"
         id="rect4199"
         width="104.2328"
         height="6.2043338"
         x="11.184"
         y="1041.7529"
         rx="1.64053"
         ry="1.64053" />
    </g>
  </g>
</svg>
